<?xml version="1.0" standalone="no"?>
<!DOCTYPE svg PUBLIC "-//W3C//DTD SVG 20010904//EN"
 "http://www.w3.org/TR/2001/REC-SVG-20010904/DTD/svg10.dtd">
<svg version="1.0" xmlns="http://www.w3.org/2000/svg"
 width="32.000000pt" height="32.000000pt" viewBox="0 0 32.000000 32.000000"
 preserveAspectRatio="xMidYMid meet">

<g transform="translate(0.000000,32.000000) scale(0.100000,-0.100000)"
fill="#000000" stroke="none">
<path d="M73 269 c-29 -10 -46 -44 -41 -80 4 -22 0 -29 -16 -32 -17 -3 -15 -5
5 -6 16 0 33 -11 43 -26 9 -14 35 -37 57 -52 36 -23 42 -25 65 -13 14 8 43 33
65 57 31 34 39 50 39 81 0 60 -33 82 -100 69 -19 -4 -49 -3 -65 2 -17 4 -40 5
-52 0z"/>
</g>
</svg>
